<svg width="46" height="30" fill="none" xmlns="http://www.w3.org/2000/svg"><path d="M41.836 8.637H4.152a10.093 10.093 0 0 0-2.414 6.364 10.152 10.152 0 0 0 2.496 6.477h37.52a10.152 10.152 0 0 0 2.496-6.477 10.093 10.093 0 0 0-2.414-6.364z" fill="#201A17"/><path d="M18.09 17.244v-6.018h-2.555v7.65h7.36v-1.632H18.09zm2.965-6.018v1.632h3.475v6.018h2.655v-6.018h3.37v-1.632h-9.5zm-8.418 7.65h2.396l-3.69-7.65h-3.27l-3.575 7.65h2.387l.674-1.364h4.372l.706 1.364zM8.4 15.762l1.294-2.65 1.366 2.65H8.4zm27.308-4.398c-3.475 0-4.7 1.45-4.7 3.637 0 2.186.91 3.927 5.01 3.927 4.185 0 5.01-1.76 5.01-3.927 0-2.169-1.23-3.637-5.32-3.637zm.41 5.91c-1.735 0-2.35-1.005-2.35-2.246 0-.609.242-1.193.673-1.623a2.302 2.302 0 0 1 3.927 1.623 2.073 2.073 0 0 1-1.354 2.148 2.086 2.086 0 0 1-.896.12v-.023z" fill="#fff"/><path d="M22.99 30c-6.116 0-11.873-1.546-16.208-4.355C2.446 22.836 0 19.032 0 15c0-4.032 2.41-7.814 6.782-10.645C11.154 1.523 16.874 0 22.99 0c6.117 0 11.873 1.545 16.21 4.355C43.535 7.164 46 10.968 46 15c0 4.032-2.428 7.814-6.8 10.645C34.828 28.477 29.107 30 22.99 30zm0-29.386C10.654.614.616 7.068.616 15c0 7.932 10.02 14.386 22.376 14.386 12.356 0 22.376-6.454 22.376-14.386C45.367 7.068 35.329.614 22.99.614z" fill="#201A17"/><path d="M22.99 28.767c8.125 0 15.185-2.954 18.76-7.272H4.23c3.58 4.318 10.635 7.272 18.76 7.272z" fill="#0095E3"/><path d="M22.994 1.231c-8.189 0-15.294 3-18.842 7.405h37.684c-3.548-4.405-10.653-7.405-18.842-7.405z" fill="#EE0001"/></svg>