<svg width="32" height="30" fill="none" xmlns="http://www.w3.org/2000/svg"><g clip-path="url(#clip0)"><path d="M32.083 23.26H-.082V30h32.165v-6.74z" fill="#FFC600"/><path d="M3.048 25.563a.028.028 0 0 0 0-.027c.06-.455.914-.664 1.138-.709a.041.041 0 0 1 .043.024.04.04 0 0 1 .003.017V25s.26-.677.389-.605c.22.253.376.553.457.878.023.122 0 .154-.046.159a.041.041 0 0 0-.018.034.041.041 0 0 0 .018.034.508.508 0 0 0 .188.122.187.187 0 0 0 .222-.032.187.187 0 0 0 .043-.067.037.037 0 0 1 .05 0 .811.811 0 0 1 .407.386.041.041 0 0 0 .039.027.042.042 0 0 0 .039-.027 1.43 1.43 0 0 0-.156-.564.04.04 0 0 1 .05-.054.041.041 0 0 0 .051-.02.04.04 0 0 0-.014-.053 3.735 3.735 0 0 0-.626-.373c-.055-.059-.567-.59-.713-.586-.147.004-.27.327-.32.454a.042.042 0 0 1-.06 0l-.27-.168a.041.041 0 0 0-.064.032v.21a.055.055 0 0 1-.027.036c-.9.29-.987.631-.997.718a.036.036 0 0 1 0 .027 2.145 2.145 0 0 0-.68.755c.243-.296.531-.552.854-.76z" fill="#000100"/><path d="M4.644 24.736c-.037 0-.16.268-.114.305l.338.277a.983.983 0 0 0-.224-.582zm.184 1.682c.055.037.251.2.251.2a.598.598 0 0 1-.123-.409.904.904 0 0 0-.279-.786c.091.336.06.694-.091 1.009a.516.516 0 0 0 .11.64.59.59 0 0 1 .182.374s.128-.491 0-.678c-.128-.186-.1-.404-.05-.35zm-.257-.832s-.233-.122-.356.06a.832.832 0 0 0-.023.536c.005-.16.197-.618.38-.596zm-.458.596c-.132-.073-.393.223-.512.214a.539.539 0 0 1-.342-.296c-.042-.109-.192-.027-.247.05 0 0 .164-.059.155.05-.009.11-.073.455.348.41.42-.046.457.227.457.227s0-.305-.179-.373c0 0 .133-.141.266-.055.132.087.192.332.15.764.183-.432.115-.882-.096-.991z" fill="#000100"/><path d="M6.176 27.387a1.19 1.19 0 0 0-.082-.523 1.636 1.636 0 0 1-.023-.541c-.153.37-.185.779-.091 1.168.05.486-.586.873-.586.873.13-.315.174-.659.128-.996.053.027.1.063.142.105.08-.346.056-.708-.068-1.041.083.037.161.084.233.14a1.01 1.01 0 0 0-.508-.79c.123.163.216.346.275.54a2.418 2.418 0 0 0-.33-.09c.179.303.28.645.298.995a1.469 1.469 0 0 0-.32-.168 1.13 1.13 0 0 1 0 .95.512.512 0 0 0-.083-.245.454.454 0 0 1-.457.363c.316-.504-.228-.727-.498-.554a.975.975 0 0 0-.325.64.487.487 0 0 1-.512-.24c-.055-.11.096-.223.128-.223a1.54 1.54 0 0 0 .457-.2c.16-.1.27-.304 0-.564-.27-.259-.585-.09-.937.1-.352.191-.301.119-.43.041-.127-.077-.237-.286-.132-.377.105-.09.1-.332-.046-.354-.146-.023-.37.086-.397.181-.028.096.265.3.265.3a.997.997 0 0 0 .457.455.042.042 0 0 0 .032 0c.068.09.206.209.26.209l.028-.032v-.35c.12-.087.254-.152.398-.19.274-.046.246.163.246.163a.93.93 0 0 0-.292.509.324.324 0 0 0-.06.04.627.627 0 0 1-.219-.058h-.032c-.005 0 0 0 0 .027a.62.62 0 0 0 .15.373.59.59 0 0 0 .065.145c.224.35.727.21.727.21a1.69 1.69 0 0 1 .178-.65.256.256 0 0 1 .457.072c.046.218-.27.496-.27.496.232.027.467-.013.677-.114a1.412 1.412 0 0 1-.302.659 2.135 2.135 0 0 0 1.545-1.29 1.973 1.973 0 0 0-.04-1.95 2.189 2.189 0 0 1-.106 1.786zm-3.78-.823c-.074 0-.078.054-.037.095s0 .114-.046.118a.565.565 0 0 1-.187-.186s.183-.14.233-.105c.05.037.037.078.037.078zm.63.882v.054a.783.783 0 0 1-.196-.173 1.32 1.32 0 0 0 .206-.118c-.005.096-.01.178-.01.237zm.563.159c.023 0 .064-.278.27-.378.068-.031.146.164 0 .264a.522.522 0 0 1-.27.114zm-.339.327a.692.692 0 0 1-.091-.241.678.678 0 0 0 .178.046.313.313 0 0 0-.087.195z" fill="#000100"/><path d="M3.017 26.637c-.126.1-.23.225-.302.368 0 0 .302-.3.411-.268a.093.093 0 0 1 .058.045.091.091 0 0 1 .006.073c.128-.155-.027-.296-.173-.218zm-.05-.151c.069-.022.092 0 .092 0-.032-.181-.284.078-.403.282.093-.105.197-.2.311-.282zm-.101-.195a.455.455 0 0 0-.169.191.96.96 0 0 1 .275-.182.092.092 0 0 0-.106-.009zM3.98 25.1c0-.027-.054-.105-.118-.091a2.211 2.211 0 0 0-.393.309c-.229.2.489-.186.512-.218z" fill="#000100"/><path d="M3.36 25.75c-.082.041-.082.168 0 .164.083-.005.115-.132.124-.137a.362.362 0 0 0 .306-.15h.092a1.79 1.79 0 0 1-.183.282c-.087.091-.124.119-.17.132a.415.415 0 0 1-.164 0c.028.046.215.15.407-.059.192-.209.22-.39.288-.454l-.137-.055.388-.232c.128-.073-.068-.25-.123-.264-.055-.013 0 .073 0 .1 0 .028-.206.232-.297.387a.559.559 0 0 0-.233.027c-.165.032-.179.091-.179.091s-.1-.036-.091-.086a.127.127 0 0 0 .055.168s-.005.045-.082.086zm.284-.136a.208.208 0 0 1 .096 0 .228.228 0 0 1-.178.09.26.26 0 0 1 .096-.09h-.014z" fill="#000100"/><path d="M4.297 23.75a2.91 2.91 0 0 0-1.611.483c-.477.317-.85.766-1.07 1.293a2.867 2.867 0 0 0 .626 3.142 2.903 2.903 0 0 0 3.159.627 2.89 2.89 0 0 0 1.301-1.062 2.87 2.87 0 0 0-.358-3.637 2.907 2.907 0 0 0-2.047-.846zm0 5.56a2.708 2.708 0 0 1-1.5-.451 2.668 2.668 0 0 1-.412-4.128 2.702 2.702 0 0 1 2.942-.58c.493.203.914.547 1.21.99a2.67 2.67 0 0 1-.337 3.383 2.705 2.705 0 0 1-1.903.785zm9.981-3.57a3.098 3.098 0 0 0-1.372.214l.27.5a1.76 1.76 0 0 1 .85-.172c.512 0 .457.29.457.29v.155c-1.252 0-1.696.318-1.719.81-.022.49.435.836 1.372.836.44.027.882-.027 1.303-.16v-1.64c-.01-.369-.325-.791-1.161-.832zm.169 2.137s-.818.123-.818-.35c0-.4.818-.35.818-.35v.7zm8.786-2.137a3.098 3.098 0 0 0-1.372.214l.27.5c.264-.127.557-.187.85-.172.512 0 .457.29.457.29v.155c-1.252 0-1.696.318-1.718.81-.023.49.457.836 1.371.836a3.6 3.6 0 0 0 1.303-.16v-1.64c-.01-.369-.325-.791-1.161-.832zm.169 2.137s-.819.123-.819-.35c0-.4.819-.35.819-.35v.7zm-6.488-.477l-.548-1.595h-1.038l1.184 2.495-.475 1.064h.996l1.596-3.56h-1.001l-.714 1.596zm-5.878-2.49l-.736 2.145-.732-2.146H8.462l-.503 3.423h.937l.233-2.3.878 2.3h.585l.882-2.3.229 2.3h.942l-.508-3.423h-1.101zm9.589.9a3.079 3.079 0 0 0-.914.095v-1.26h-.941v3.537s.192.19 1.197.204c1.006.014 1.587-.577 1.587-1.29 0-1.046-.554-1.287-.928-1.287zm-.735 1.972a1.51 1.51 0 0 1-.165-.064v-1.273c.256-.127.914-.218.914.61 0 .827-.63.763-.75.727zm6.209-2.045a5.518 5.518 0 0 0-1.404.145v2.495h.956v-1.736c0-.454.782-.377.782 0v1.737h.955v-2.046c0-.245-.389-.595-1.29-.595zm3.528 1.223l.946-1.155h-1.07l-.809.995v-2.155h-.96v3.732h.96v-1.204l.91 1.2h1.047l-1.024-1.414z" fill="#000100"/><path d="M14.953 13.236c-.21-3.973-2.153-7.018-5.81-7.018-2.693 0-4.042 1.464-4.572 2.227V.641h-3.2v19.886h3.25v-7.982c.736-2.577 1.687-4.054 3.973-4.123 2.286-.068 3.474 3.182 3.113 5.241-.361 2.06-.992 5.455-6.222 4.714 0 0 .659 2.405 3.84 2.082 3.182-.323 5.834-3.25 5.628-7.223zm6.776 5.324V6.772h-3.25v11.786s.09 1.932 1.892 1.932c.478.032.954-.076 1.372-.309.417-.233.757-.582.978-1.005-.58.037-.992-.354-.992-.618zm7.564 0V6.772h-3.236v11.786s.091 1.932 1.888 1.932a2.48 2.48 0 0 0 1.373-.308 2.46 2.46 0 0 0 .98-1.006c-.584.037-1.005-.354-1.005-.618z" fill="#593539"/><path d="M27.735 3.327h-2.807a2.776 2.776 0 0 0 1.079 1.685 2.805 2.805 0 0 0 3.73-.371 2.768 2.768 0 0 0 0-3.727 2.805 2.805 0 0 0-3.73-.37 2.776 2.776 0 0 0-1.08 1.683h2.808v1.1zm-7.292 0h2.807a2.776 2.776 0 0 1-1.08 1.685 2.805 2.805 0 0 1-3.73-.371 2.768 2.768 0 0 1 0-3.727 2.805 2.805 0 0 1 3.73-.37 2.772 2.772 0 0 1 1.08 1.683h-2.807v1.1z" fill="#EA1C33"/></g><defs><clipPath id="clip0"><path fill="#fff" d="M0 0h32v30H0z"/></clipPath></defs></svg>