<svg width="127" height="30" fill="none" xmlns="http://www.w3.org/2000/svg"><path d="M43.422 14.845v-.041c1.662-.56 2.623-1.605 2.623-3.486 0-2.569-2.066-3.787-4.839-3.787h-6.845v14.932h6.27c2.664 0 5.799-.75 5.799-4.323 0-1.818-1.024-2.886-3.008-3.295zm-5.106-4.491h1.15c1.324 0 2.606.132 2.606 1.495 0 1.264-1.36 1.587-2.646 1.587h-1.11v-3.082zm1.173 9.286h-1.173v-3.509h1.219c1.359 0 2.917.15 2.917 1.773.01 1.518-1.504 1.736-2.953 1.736h-.01zM51.636 7.531l-5.65 14.932h4.028l1.173-3.182h5.586l1.105 3.182h4.354L56.496 7.531h-4.86zm.453 8.923l1.92-5.84h.041l1.771 5.84H52.09zm20.82 1.218h-.045l-5.029-10.14h-5.056v14.931h3.647L66.3 12.258h.041l5.2 10.205h4.93V7.531h-3.625l.064 10.141zM91.074 7.531H86.3l-4.48 6.096h-.042V7.53h-3.964v14.932h3.964V15.68h.041l4.626 6.782H91.5l-5.925-7.982 5.5-6.95zm14.407 7.314v-.041c1.663-.56 2.618-1.605 2.618-3.486 0-2.569-2.065-3.787-4.838-3.787h-6.845v14.932h6.27c2.664 0 5.799-.75 5.799-4.323 0-1.818-1.024-2.886-3.004-3.295zm-5.101-4.491h1.151c1.322 0 2.6.132 2.6 1.495 0 1.264-1.359 1.587-2.646 1.587h-1.105v-3.082zm1.173 9.286h-1.173v-3.509h1.214c1.359 0 2.922.15 2.922 1.773.005 1.518-1.513 1.736-2.958 1.736h-.005zm16.832-4.536v-.045c1.921-.455 2.854-1.773 2.854-3.764 0-2.568-2.152-3.764-4.793-3.764h-7.081v14.932h3.964v-5.909h.834c1.472 0 1.984.64 2.795 3.21l.852 2.695h4.136l-1.45-4.064c-.747-1.814-.834-2.95-2.111-3.291zm-4.009-1.364h-1.047v-3.386h1.047c1.513 0 2.899.26 2.899 1.645 0 1.691-1.617 1.737-2.899 1.737v.004zm12.623-6.209h-3.964v14.932h3.964V7.531zM25.315 0H4.562a4.613 4.613 0 0 0-3.245 1.395A4.645 4.645 0 0 0 0 4.682v20.632a4.64 4.64 0 0 0 1.288 3.266A4.61 4.61 0 0 0 4.49 30h20.812a4.614 4.614 0 0 0 3.25-1.395 4.645 4.645 0 0 0 1.316-3.291V4.69a4.644 4.644 0 0 0-1.31-3.29A4.613 4.613 0 0 0 25.315 0zM7.027 27.6H5.894a2.492 2.492 0 0 1-1.745-.75 2.51 2.51 0 0 1-.715-1.764V4.818c.01-.634.266-1.24.712-1.689a2.438 2.438 0 0 1 1.68-.72h2.302a3.89 3.89 0 0 1 2.698 1.206 3.916 3.916 0 0 1 1.08 2.758A3.934 3.934 0 0 1 10.818 9.1L4.93 15.077l5.523 5.605a3.948 3.948 0 0 1 1.137 2.727c0 2.323-2.043 4.191-4.562 4.191zm16.925-.023H13.686s1.187-2.573 1.187-4.168a7.342 7.342 0 0 0-1.658-4.823l-3.51-3.59 3.582-3.714c1.065-1.005 1.772-2.791 1.772-4.827a7.177 7.177 0 0 0-1.155-4.046h2.487a3.89 3.89 0 0 1 2.698 1.206 3.916 3.916 0 0 1 1.08 2.758A3.934 3.934 0 0 1 19.082 9.1l-5.763 5.91 11.964 12.24a2.53 2.53 0 0 1-1.331.327zm2.505-3.818l-8.576-8.768 4.077-4.164a7.117 7.117 0 0 0 1.36-4.372 7.291 7.291 0 0 0-1.17-4.119l1.813.06a2.489 2.489 0 0 1 1.762.744 2.505 2.505 0 0 1 .72 1.778l.014 18.841z" fill="#00529C"/></svg>