<svg width="191" height="30" fill="none" xmlns="http://www.w3.org/2000/svg"><g clip-path="url(#clip0)"><path d="M55.577 24.277a10.351 10.351 0 0 1-4.34.86 11.314 11.314 0 0 1-4.133-.737 9.52 9.52 0 0 1-5.472-5.31 10.6 10.6 0 0 1-.791-4.15c-.02-1.44.253-2.869.804-4.2a9.318 9.318 0 0 1 2.223-3.208A9.822 9.822 0 0 1 47.2 5.5a11.941 11.941 0 0 1 8.145 0 7.728 7.728 0 0 1 3.21 2.113l-3.182 3.182a3.959 3.959 0 0 0-1.718-1.34A5.704 5.704 0 0 0 51.468 9a5.527 5.527 0 0 0-2.273.454 5.353 5.353 0 0 0-1.759 1.246 5.64 5.64 0 0 0-1.145 1.868 6.594 6.594 0 0 0-.414 2.359 6.82 6.82 0 0 0 .414 2.404c.25.692.635 1.326 1.132 1.869a5.096 5.096 0 0 0 1.731 1.213 5.51 5.51 0 0 0 2.21.455 5.145 5.145 0 0 0 2.431-.546 4.704 4.704 0 0 0 1.664-1.418l3.25 3.06a9.208 9.208 0 0 1-3.132 2.313zm4.878.341V5.295h4.695v19.323h-4.695zm25.88 0l.11-13.673h-.082l-5 13.673h-3.278l-4.904-13.673h-.082l.109 13.673h-4.395V5.295h6.64l4.4 12.391h.11l4.209-12.39h6.736v19.322h-4.573zm23.311-5.623a5.239 5.239 0 0 1-.628 2.664 4.993 4.993 0 0 1-1.663 1.732 7.24 7.24 0 0 1-2.364.94c-.896.194-1.81.29-2.727.287h-7.682V5.295h7.691c.763.004 1.524.082 2.273.232.75.143 1.47.41 2.131.791a4.5 4.5 0 0 1 1.555 1.514 4.5 4.5 0 0 1 .6 2.432 4.02 4.02 0 0 1-.873 2.659 4.865 4.865 0 0 1-2.272 1.513v.055c.538.089 1.059.26 1.545.509a4.389 4.389 0 0 1 2.1 2.273 4.49 4.49 0 0 1 .314 1.722zm-5.296-8.086a1.554 1.554 0 0 0-.75-1.436 4.396 4.396 0 0 0-2.223-.455h-2.286v3.986h2.514c.718.04 1.43-.151 2.032-.545a1.822 1.822 0 0 0 .713-1.55zm.65 7.65a1.705 1.705 0 0 0-.909-1.664 5.267 5.267 0 0 0-2.4-.454h-2.6v4.418h2.623a7.051 7.051 0 0 0 1.132-.095c.37-.057.729-.172 1.063-.341A1.938 1.938 0 0 0 105 18.559zm14.545-13.264h5.759c.742.002 1.483.08 2.209.232.712.14 1.393.409 2.009.791.598.38 1.094.9 1.446 1.514.397.737.59 1.567.559 2.404a4.047 4.047 0 0 1-.932 2.66 4.386 4.386 0 0 1-2.5 1.486v.054a5.084 5.084 0 0 1 3.104 1.473 4.551 4.551 0 0 1 1.237 3.368 4.76 4.76 0 0 1-1.932 3.905 6.881 6.881 0 0 1-2.273 1.077 10.86 10.86 0 0 1-2.995.382h-5.691V5.295zm1.964 8.46h3.945a6.47 6.47 0 0 0 1.432-.164 3.986 3.986 0 0 0 1.323-.56c.404-.266.737-.626.972-1.05.26-.495.387-1.05.368-1.608a3.11 3.11 0 0 0-.368-1.573 3.057 3.057 0 0 0-1-1.05 4.27 4.27 0 0 0-1.472-.586 8.77 8.77 0 0 0-1.819-.178h-3.413l.032 6.769zm0 9.172h3.659a9.797 9.797 0 0 0 2.013-.2 5.277 5.277 0 0 0 1.696-.654c.473-.29.87-.69 1.159-1.164a3.291 3.291 0 0 0 .454-1.732 3.29 3.29 0 0 0-1.295-2.85c-.868-.632-2.091-.94-3.673-.94h-4.013v7.54zm14.941 1.691h-2.159l8.355-19.323h1.9l8.3 19.323h-2.187l-2.118-5.073h-10l-2.091 5.073zm2.836-6.89h8.519l-4.259-10.25-4.26 10.25zm29.805 4.027h.054V5.294h1.968v19.323h-2.477L157.409 7.995h-.055v16.623h-1.963V5.295h2.454l11.246 16.46zm8.818-7.782h.027l9.196-8.678h2.813l-9.745 8.76 10.291 10.563h-2.896l-9.659-10.29h-.027v10.29h-1.964V5.295h1.964v8.678zM32.245 0H.1v29.914h32.145V0z" fill="#76111C"/><path d="M28.74 14.955H11.95L3.6 5.345h16.79l8.35 9.61z" fill="#fff"/><path d="M28.74 14.955H11.95L3.6 24.568h16.79l8.35-9.613z" fill="#EB2428"/></g><defs><clipPath id="clip0"><path fill="#fff" d="M0 0h190.968v30H0z"/></clipPath></defs></svg>