<svg width="50" height="39" fill="none" xmlns="http://www.w3.org/2000/svg"><path d="M50 31.007c0 4.315-3.484 7.828-7.763 7.828H0V7.83C0 3.514 3.484 0 7.763 0H50v31.007z" fill="#fff"/><path d="M36.247 23.055h3.209c.092 0 .306-.031.397-.031.612-.123 1.131-.678 1.131-1.449 0-.74-.52-1.294-1.13-1.448-.092-.031-.276-.031-.398-.031h-3.21v2.959z" fill="url(#paint0_linear)"/><path d="M39.09 2.62c-3.057 0-5.563 2.496-5.563 5.61v5.825h7.854c.184 0 .398 0 .55.03 1.773.093 3.087 1.017 3.087 2.62 0 1.264-.886 2.343-2.536 2.558v.062c1.803.123 3.178 1.14 3.178 2.712 0 1.696-1.528 2.805-3.545 2.805h-8.619v11.404h8.16c3.057 0 5.563-2.496 5.563-5.61V2.62h-8.13z" fill="url(#paint1_linear)"/><path d="M40.587 17.075c0-.74-.52-1.233-1.131-1.325-.061 0-.214-.031-.306-.031h-2.903v2.712h2.903c.092 0 .275 0 .306-.03a1.308 1.308 0 0 0 1.13-1.326z" fill="url(#paint2_linear)"/><path d="M8.344 2.62c-3.057 0-5.563 2.496-5.563 5.61v13.838c1.559.77 3.179 1.264 4.798 1.264 1.926 0 2.965-1.171 2.965-2.774v-6.534h4.768v6.503c0 2.527-1.559 4.593-6.846 4.593-3.21 0-5.715-.71-5.715-.71v11.805h8.16c3.056 0 5.562-2.496 5.562-5.61V2.62h-8.13z" fill="url(#paint3_linear)"/><path d="M23.716 2.62c-3.056 0-5.562 2.496-5.562 5.61v7.335c1.406-1.202 3.85-1.973 7.793-1.788 2.11.093 4.37.678 4.37.678v2.373c-1.13-.585-2.475-1.109-4.217-1.232-2.995-.216-4.798 1.263-4.798 3.852 0 2.62 1.803 4.1 4.798 3.853 1.742-.123 3.087-.678 4.218-1.233v2.373s-2.231.586-4.37.679c-3.943.184-6.388-.586-7.794-1.788v12.945h8.16c3.056 0 5.562-2.496 5.562-5.61V2.62h-8.16z" fill="url(#paint4_linear)"/><defs><linearGradient id="paint0_linear" x1="33.522" y1="21.579" x2="47.256" y2="21.579" gradientUnits="userSpaceOnUse"><stop stop-color="#007940"/><stop offset=".229" stop-color="#00873F"/><stop offset=".743" stop-color="#40A737"/><stop offset="1" stop-color="#5CB531"/></linearGradient><linearGradient id="paint1_linear" x1="33.521" y1="19.419" x2="47.256" y2="19.419" gradientUnits="userSpaceOnUse"><stop stop-color="#007940"/><stop offset=".229" stop-color="#00873F"/><stop offset=".743" stop-color="#40A737"/><stop offset="1" stop-color="#5CB531"/></linearGradient><linearGradient id="paint2_linear" x1="33.522" y1="17.071" x2="47.256" y2="17.071" gradientUnits="userSpaceOnUse"><stop stop-color="#007940"/><stop offset=".229" stop-color="#00873F"/><stop offset=".743" stop-color="#40A737"/><stop offset="1" stop-color="#5CB531"/></linearGradient><linearGradient id="paint3_linear" x1="2.775" y1="19.419" x2="16.721" y2="19.419" gradientUnits="userSpaceOnUse"><stop stop-color="#1F286F"/><stop offset=".475" stop-color="#004E94"/><stop offset=".826" stop-color="#0066B1"/><stop offset="1" stop-color="#006FBC"/></linearGradient><linearGradient id="paint4_linear" x1="18.075" y1="19.419" x2="31.62" y2="19.419" gradientUnits="userSpaceOnUse"><stop stop-color="#6C2C2F"/><stop offset=".173" stop-color="#882730"/><stop offset=".573" stop-color="#BE1833"/><stop offset=".859" stop-color="#DC0436"/><stop offset="1" stop-color="#E60039"/></linearGradient></defs></svg>