<svg width="61" height="56" fill="none" xmlns="http://www.w3.org/2000/svg"><path d="M2.03 54.906C.873 54.304-.037 53.777.005 53.735c.148-.148 5.676-1.328 9.536-2.035 8.353-1.531 18.284-2.757 28.176-3.477 4.074-.297 18.812-.307 21.368-.014l1.676.191-1.89.03c-3.353.052-11.044.59-17.069 1.194-11.405 1.144-24.085 3.252-33.258 5.53C6.67 55.62 4.91 56 4.635 56c-.279 0-1.45-.492-2.606-1.094zm15.945-11.48c-.171-.473.546-.685.858-.82 1.405-.602 2.393-1.583 2.723-2.704.159-.536.64-3.568 1.071-6.736.431-3.169.818-5.62.86-5.763.032-.106.117-.484.571-.525 1.16-.012 2.022.003 3.21.003.657-.063.528.656.477 1.116-.052.582-.208 1.704-.39 3.074-.223 1.67-.556 4.168-.739 5.55-.413 3.103-.642 4.059-1.356 5.658-.85 1.902-2.15 3.008-4.505 3.795-.476.148-1.839.612-1.988.2-.308-.987-.526-1.845-.792-2.848zm27.045-1.04c-1.57-.634-1.495-3.081.151-4.085 1.042-.635 2.506-.527 3.258.225 1.854 1.853-.872 4.883-3.409 3.86zm-11.862-1.462c-4.615-.788-4.584-6.29-3.55-9.433 1.294-3.64 4.449-4.697 7.041-4.79 2.188-.074 5.221.333 5.983.803.21.13.111 1.391-.476 6.068-.408 3.247-.854 6.04-.992 6.205-.73.88-5.625 1.581-8.006 1.147zm4.025-4.354c.495-1.843.704-3.507 1.059-5.45-.044-.671-1.176-.676-1.463-.677-1.498 0-2.383.84-2.852 2.71-.643 2.565.028 3.993 1.877 3.993.584-.054 1.194-.022 1.379-.576zM3.459 39.44c1.262-3.082 6.328-14.115 7.544-16.4.23-.57.835-.682 1.249-.722 1.192-.054 2.222-.04 3.268-.032 1.078.01 1.094.387 1.233 1.189.17.799 2.273 13.358 2.749 16.372.06.5.183.656-.468.657-.903.003-3.077.12-3.814.065-.236-.03-.39-.185-.426-.359a14.395 14.395 0 0 1-.195-1.457l-.134-1.502H9.05l-.592 1.444a19.64 19.64 0 0 1-.612 1.356c-.12.309-.299.45-.566.51-.663-.006-3.012.08-3.895.003-.436-.2-.041-.844.073-1.125zm10.529-6.37c-.077-.812-.595-4.997-.717-5.615-.032-.066-.047-.045-.08-.005-.32.48-2.05 4.727-2.344 5.713-.036.136.053.186.181.175.44-.03 2.233-.064 2.779-.084.155-.012.17-.067.18-.184zm31.24 2.034c.07-.547.224-2.032.341-3.3.117-1.267.306-3.247.418-4.399.085-.874.16-1.723.192-2.17.066-.4.55-.447.868-.45 1.06.011 2.06-.052 3.013.036.45.046.639.146.64.414-.43 2.206-1.975 9.816-2.093 10.288-.103.406-.145.526-.765.561-.76-.012-1.393.027-2.165.024-.442-.006-.56-.136-.449-1.004zM23.833 23.797c0-1.344.865-2.37 1.948-2.8.936-.328 1.985-.327 2.544.311.991 1.152.34 2.855-.817 3.742-1.484 1.021-3.651.418-3.675-1.253zm26.58-2.834c-.323-.72-1.363-2.992-2.31-5.048-.946-2.056-1.67-3.87-1.609-4.029.061-.16 1.116-1.47 2.344-2.912l2-2.348c.13-.158.28-.351.462-.354 1.205.006 2.453.078 3.603.067.856-.007 1.287-.063.652.582a66.675 66.675 0 0 1-2.126 2.437c-1.325 1.462-2.409 2.696-2.409 2.745 0 .047.994 2.23 2.208 4.85.955 2.06 1.742 3.9 2.008 4.67.114.26.014.484-.229.546-.321.074-.9.104-1.894.104h-1.49c-.364.038-.632-.026-.772-.338l-.437-.972zM5.822 19.431c-1.34-.668-1.974-1.514-2.09-2.789-.069-.764 1.18-11.033 1.734-14.298.135-.767.194-.81.93-.81H7.84c.76 0 1.452-.014 1.887.011.595.009.486.383.44.832-.102 1.001-.42 3.17-.82 5.964-.71 4.955-.89 6.704-.72 6.973.198.315.703.367 4.043.417l2.989.044c.711-.039.858.136.789.775-.175 1.058-.27 1.9-.444 2.848-.119.592-.5.437-1.095.474l-3.494.048c-4.48.056-4.503.054-5.594-.49zm34.458.38c-.045-.086.08-1.288.278-2.671.198-1.383.611-4.352.918-6.599.873-6.378 1.16-8.3 1.281-9.035.129-.858.13-.81.97-.81h1.333c.52 0 .927-.008 1.24.003 1.197.039 1.045-.064.743 1.79-.114.7-.495 3.784-.845 6.376-.883 6.529-1.462 10.532-1.568 10.842-.1.29-4.201.388-4.35.104zm-22.777-.496c.557-4.666 1.088-8.194 1.705-12.535.047-.52.557-.58 1.154-.58.679-.001 1.369-.01 2.015.011 1.253.005 1.582.172 1.452 1.01-.555 4.075-1.24 7.713-1.96 11.857-.135.702-.3.681-.97.681-.78.003-2.165.029-2.873.01-.414-.074-.508-.121-.523-.454zM26.341 8.87c.343-1.804.581-2.085 1.08-2.412.616-.404 5.165-.824 6.736-.623.219.032.427.071.626.118 4.601 1.093 3.886 6.303 3.587 8.7-.316 2.29-.624 4.375-.688 4.635-.11.45-.208.471-2.291.471-.7 0-1.066-.024-1.464-.062-.644-.042-.703-.186-.64-.654.235-1.913.551-3.563.787-5.35.318-2.438.233-4.846-2.793-4.329-.518.132-.66.174-.731.691-.378 2.409-.71 4.897-1.055 7.253-.076.562-.182 1.15-.29 1.67-.029.133-.044.252-.068.34-.031.104-.103.212-.171.105-.486-.885-2.774-.738-3.729-.088-.478.333-.577.512-.381-.503l.1-.645c.474-3.108.793-6.166 1.385-9.317zm-6.532-5.339C19.3 1.788 20.82.065 22.524.006c2.309-.155 2.946 3.02.584 4.461-1.368.626-2.806.494-3.299-.936z" fill="#E9232A"/></svg>