<svg width="112" height="30" fill="none" xmlns="http://www.w3.org/2000/svg"><path d="M13.447 0H4.738c-.288 0-.567.104-.786.292-.22.189-.366.449-.412.735L.01 23.482a.736.736 0 0 0 .414.778c.096.044.2.067.305.067h4.16a1.209 1.209 0 0 0 1.193-1.032l.95-6.054a1.22 1.22 0 0 1 .409-.735c.218-.188.497-.292.785-.292h2.758c5.738 0 9.043-2.791 9.916-8.323.389-2.423 0-4.323-1.113-5.655C18.547.773 16.363 0 13.447 0zm1.004 8.182c-.475 3.182-2.862 3.182-5.173 3.182H7.962l.905-5.869a.737.737 0 0 1 .719-.618h.601c1.574 0 3.057 0 3.825.91.452.536.597 1.336.42 2.436M39.488 8.1h-4.173a.726.726 0 0 0-.715.618l-.185 1.173-.294-.428c-.9-1.318-2.912-1.736-4.924-1.736-4.612 0-8.546 3.514-9.315 8.436-.398 2.455.168 4.805 1.556 6.441 1.27 1.487 3.088 2.11 5.25 2.11a7.953 7.953 0 0 0 3.13-.61 7.986 7.986 0 0 0 2.643-1.79l-.19 1.163a.735.735 0 0 0 .434.787.724.724 0 0 0 .313.059h3.757c.288-.001.566-.105.785-.293a1.22 1.22 0 0 0 .409-.735l2.26-14.35a.731.731 0 0 0-.428-.787.72.72 0 0 0-.313-.058zm-5.815 8.182a4.684 4.684 0 0 1-1.61 2.893 4.638 4.638 0 0 1-3.115 1.093 3.493 3.493 0 0 1-2.799-1.132 3.553 3.553 0 0 1-.655-2.945 4.698 4.698 0 0 1 1.58-2.905 4.652 4.652 0 0 1 3.095-1.132 3.505 3.505 0 0 1 2.78 1.141 3.646 3.646 0 0 1 .706 2.968M61.703 8.1H57.51a1.207 1.207 0 0 0-.981.537l-5.801 8.559-2.45-8.228a1.223 1.223 0 0 0-1.163-.868h-4.12a.725.725 0 0 0-.733.64.735.735 0 0 0 .042.351l4.621 13.636-4.34 6.16a.735.735 0 0 0 .234 1.002.726.726 0 0 0 .358.111h4.182a1.198 1.198 0 0 0 .995-.523L62.3 9.246a.73.73 0 0 0-.597-1.146z" fill="#283B82"/><path d="M75.579 0h-8.713a1.22 1.22 0 0 0-1.194 1.027L62.15 23.482a.734.734 0 0 0 .71.845h4.471a.843.843 0 0 0 .837-.723l.999-6.363a1.22 1.22 0 0 1 .409-.735c.219-.188.497-.292.785-.292h2.758c5.738 0 9.043-2.791 9.916-8.323.389-2.423 0-4.323-1.112-5.655C80.688.773 78.495 0 75.579 0zm1.004 8.182c-.475 3.182-2.872 3.182-5.173 3.182h-1.316l.904-5.869a.728.728 0 0 1 .715-.618h.642c1.569 0 3.056 0 3.82.91.453.536.597 1.336.421 2.436m25.022-.123H97.45a.721.721 0 0 0-.72.618l-.185 1.173-.29-.427c-.904-1.319-2.916-1.76-4.928-1.76-4.607 0-8.546 3.514-9.31 8.437-.398 2.455.168 4.805 1.551 6.44 1.275 1.505 3.093 2.133 5.254 2.133a7.94 7.94 0 0 0 5.774-2.4l-.185 1.163a.732.732 0 0 0 .413.78.72.72 0 0 0 .306.066h3.757a1.209 1.209 0 0 0 1.194-1.027l2.261-14.35a.735.735 0 0 0-.719-.846h-.005zm-5.814 8.182a4.684 4.684 0 0 1-1.6 2.899 4.638 4.638 0 0 1-3.107 1.105 3.506 3.506 0 0 1-2.804-1.131 3.587 3.587 0 0 1-.65-2.946 4.698 4.698 0 0 1 1.578-2.903 4.651 4.651 0 0 1 3.092-1.133 3.519 3.519 0 0 1 2.785 1.14 3.644 3.644 0 0 1 .706 2.969zM106.533.618l-3.577 22.864a.735.735 0 0 0 .415.778.723.723 0 0 0 .304.067h3.595a1.204 1.204 0 0 0 1.193-1.032L111.99.845a.73.73 0 0 0-.714-.845h-4.029a.725.725 0 0 0-.714.618z" fill="#469BDB"/></svg>