<svg width="141" height="30" fill="none" xmlns="http://www.w3.org/2000/svg"><path fill-rule="evenodd" clip-rule="evenodd" d="M58.49.877h-4.774a.284.284 0 0 0-.28.287v13.954a.283.283 0 0 0 .28.282h2.108a.28.28 0 0 0 .28-.282v-5.003h2.132c3.067 0 5.054-1.965 5.054-5.003 0-2.674-1.751-4.207-4.8-4.207V.877zM56.086 3.12h2.09c1.656 0 2.362.646 2.362 2.156 0 1.719-.85 2.588-2.534 2.588h-1.918V3.12zm12.307 1.19c-2.76 0-4.339 2.024-4.339 5.545 0 3.834 1.588 5.78 4.724 5.78a7.002 7.002 0 0 0 3.226-.777.277.277 0 0 0 .144-.268l-.135-1.747a.265.265 0 0 0-.145-.227.289.289 0 0 0-.272 0c-.79.448-1.68.692-2.588.71-1.728 0-2.212-1.443-2.289-2.766h5.339a.284.284 0 0 0 .285-.287V9.45c0-3.411-1.321-5.14-3.932-5.14h-.018zm-.04 2.143c.904 0 1.357.737 1.43 2.187h-3.068c.067-1.068.524-2.187 1.637-2.187zm13.88-1.947H80.36a.284.284 0 0 0-.28.255l-.023.195a3.75 3.75 0 0 0-2.127-.646c-3.017 0-4.071 3.102-4.071 5.759 0 3.488 1.416 5.49 3.89 5.49a3.58 3.58 0 0 0 2.263-.76c0 1.82-.548 2.629-1.837 2.629a6.205 6.205 0 0 1-2.9-.814.294.294 0 0 0-.267 0 .276.276 0 0 0-.163.209l-.33 1.82a.284.284 0 0 0 .149.304 8.5 8.5 0 0 0 3.62.81c3.836 0 4.28-2.73 4.28-4.808V4.794a.287.287 0 0 0-.285-.287h-.046zm-3.936 8.82c-1.52 0-1.746-1.998-1.746-3.185 0-3.597 1.357-3.597 1.81-3.597a2.756 2.756 0 0 1 1.57.636v5.336a2.375 2.375 0 0 1-1.634.81zm15.383-.033a.297.297 0 0 0-.249-.032 1.48 1.48 0 0 1-.452.105c-.123 0-.28 0-.28-.628V8.964c0-2.947-.675-4.653-4.123-4.653a13.002 13.002 0 0 0-2.995.419.285.285 0 0 0-.203.305l.172 1.592a.282.282 0 0 0 .13.209.28.28 0 0 0 .24.032 8.582 8.582 0 0 1 2.367-.373c1.357 0 1.877.486 1.877 1.673v.191a7.776 7.776 0 0 0-1.416-.127c-2.737 0-4.239 1.365-4.239 3.857-.01 2.147 1.244 3.511 3.248 3.511a4.258 4.258 0 0 0 2.77-1.014c.28.705.8 1.014 1.669 1.014a5.265 5.265 0 0 0 1.538-.268.285.285 0 0 0 .195-.296l-.136-1.532a.296.296 0 0 0-.127-.214l.014.004zm-3.53-2.997v2.324c-.48.49-1.126.781-1.809.819-1.104 0-1.226-1.046-1.226-1.496 0-1.256.588-1.793 1.96-1.793.36.004.718.053 1.067.146h.009zm13.262-9.42h-2.045a.286.286 0 0 0-.285.287v3.661a3.728 3.728 0 0 0-1.919-.514c-3.058 0-4.144 3.102-4.144 5.759 0 3.46 1.457 5.526 3.896 5.526a3.61 3.61 0 0 0 2.339-.828l.022.364a.28.28 0 0 0 .281.268h1.855a.285.285 0 0 0 .285-.282V1.164a.286.286 0 0 0-.285-.287zM101.1 7.15v5.421a2.327 2.327 0 0 1-1.647.787c-1.104 0-1.742-1.178-1.742-3.23 0-2.396.62-3.615 1.841-3.615a2.636 2.636 0 0 1 1.548.637zm13.804 6.135a.291.291 0 0 0-.245-.032 1.47 1.47 0 0 1-.452.105c-.118 0-.276 0-.276-.628V8.964c0-2.947-.674-4.653-4.122-4.653a13.003 13.003 0 0 0-2.995.419.29.29 0 0 0-.203.305l.171 1.592a.295.295 0 0 0 .127.209.283.283 0 0 0 .24.032 8.61 8.61 0 0 1 2.366-.373c1.335 0 1.882.486 1.882 1.673v.191a7.77 7.77 0 0 0-1.416-.127c-2.737 0-4.244 1.365-4.244 3.857-.004 2.147 1.254 3.511 3.285 3.511a4.265 4.265 0 0 0 2.774-1.014c.275.705.796 1.014 1.669 1.014a5.259 5.259 0 0 0 1.538-.268.281.281 0 0 0 .19-.296l-.131-1.532a.303.303 0 0 0-.131-.214l-.027-.005zm-3.525-2.997v2.324c-.481.49-1.126.78-1.809.819-1.1 0-1.218-1.046-1.218-1.497 0-1.255.584-1.792 1.955-1.792a4.33 4.33 0 0 1 1.068.146h.004zm6.692-9.66a1.418 1.418 0 0 0-1.411.915 1.446 1.446 0 0 0-.091.59 1.462 1.462 0 0 0 .414 1.098 1.452 1.452 0 0 0 1.088.43 1.404 1.404 0 0 0 1.094-.422 1.43 1.43 0 0 0 .403-1.106 1.365 1.365 0 0 0-.899-1.437 1.35 1.35 0 0 0-.598-.069zm1.022 3.879h-2.027a.285.285 0 0 0-.285.287v10.32a.285.285 0 0 0 .285.286h2.027a.286.286 0 0 0 .281-.286V4.794a.286.286 0 0 0-.281-.287zm11.524 8.778a.286.286 0 0 0-.244-.032 1.475 1.475 0 0 1-.453.105c-.117 0-.276 0-.276-.628V8.964c0-2.947-.674-4.653-4.126-4.653a13.056 13.056 0 0 0-2.995.419.28.28 0 0 0-.199.305l.172 1.592a.282.282 0 0 0 .366.241 8.583 8.583 0 0 1 2.366-.373c1.335 0 1.878.486 1.878 1.673v.191a7.69 7.69 0 0 0-1.412-.127c-2.737 0-4.243 1.365-4.243 3.857 0 2.165 1.257 3.507 3.28 3.507a4.258 4.258 0 0 0 2.769-1.014c.276.704.796 1.014 1.669 1.014a5.21 5.21 0 0 0 1.534-.268.283.283 0 0 0 .194-.296l-.158-1.533a.303.303 0 0 0-.131-.214h.009zm-3.529-2.997v2.324a2.73 2.73 0 0 1-1.81.819c-1.099 0-1.221-1.046-1.221-1.497 0-1.255.588-1.792 1.959-1.792.359.003.716.052 1.063.146h.009zm13.808-3.639c-.262-1.537-1.316-2.351-3.04-2.351a5.003 5.003 0 0 0-2.909 1.023l-.032-.56a.277.277 0 0 0-.087-.19.278.278 0 0 0-.193-.078h-1.896a.286.286 0 0 0-.281.287v10.334a.294.294 0 0 0 .172.268.28.28 0 0 0 .109.023h2.049a.289.289 0 0 0 .285-.291V7.618a3.422 3.422 0 0 1 2.109-.969c.85 0 1.072.314 1.149.792a5.8 5.8 0 0 1 .036.823v6.85a.295.295 0 0 0 .08.204.28.28 0 0 0 .201.087h2.027a.29.29 0 0 0 .285-.291V7.996a9.427 9.427 0 0 0-.086-1.333l.022-.014z" fill="#00463A"/><path fill-rule="evenodd" clip-rule="evenodd" d="M12.92 10.143c-.005-1.489.317-2.96.943-4.309a10.118 10.118 0 0 1 2.676-3.496A10.072 10.072 0 0 0 12.231.23a10.042 10.042 0 0 0-4.789.126c-1.563.428-3 1.228-4.191 2.332A10.151 10.151 0 0 0 .6 6.7a10.198 10.198 0 0 0 1.23 9.275 10.111 10.111 0 0 0 3.603 3.174 10.052 10.052 0 0 0 4.653 1.146 10.012 10.012 0 0 0 6.452-2.347 10.117 10.117 0 0 1-2.676-3.497 10.168 10.168 0 0 1-.944-4.308z" fill="#B7D442"/><path fill-rule="evenodd" clip-rule="evenodd" d="M23.012 0a10.021 10.021 0 0 0-6.451 2.347A10.135 10.135 0 0 1 19.25 5.84a10.187 10.187 0 0 1 0 8.622 10.134 10.134 0 0 1-2.69 3.494 10.077 10.077 0 0 0 4.31 2.114 10.05 10.05 0 0 0 4.795-.122 10.084 10.084 0 0 0 4.197-2.333 10.156 10.156 0 0 0 2.654-4.015 10.203 10.203 0 0 0-1.234-9.285 10.114 10.114 0 0 0-3.61-3.174A10.056 10.056 0 0 0 23.012 0z" fill="#70BF4F"/><path fill-rule="evenodd" clip-rule="evenodd" d="M20.208 10.143a10.156 10.156 0 0 0-.954-4.313 10.104 10.104 0 0 0-2.693-3.492 10.14 10.14 0 0 0-2.687 3.494 10.192 10.192 0 0 0 0 8.622 10.14 10.14 0 0 0 2.687 3.494 10.103 10.103 0 0 0 2.693-3.492c.63-1.35.956-2.822.954-4.313zm25.972.063c0 2.008-.593 3.97-1.703 5.64a10.11 10.11 0 0 1-4.532 3.74 10.047 10.047 0 0 1-5.834.577 10.082 10.082 0 0 1-5.17-2.779 10.168 10.168 0 0 1-2.764-5.197c-.39-1.97-.19-4.01.574-5.866a10.14 10.14 0 0 1 3.72-4.556 10.06 10.06 0 0 1 12.75 1.263 10.18 10.18 0 0 1 2.958 7.178z" fill="#17B253"/><path fill-rule="evenodd" clip-rule="evenodd" d="M35.232 13.572l-.05-.114-1.483-3.43-1.593-3.724-.113-.269-.118.269-1.606 3.725-1.493 3.452c-.05.1-.076.21-.077.323 0 .828 1.448 1.473 3.294 1.473s3.28-.645 3.28-1.473a.797.797 0 0 0-.036-.232h-.005zm-3.257-.387h-2.466l1.24-2.856 1.23-2.861 1.236 2.86 1.23 2.857h-2.47zm11.465.387l-.054-.114-1.48-3.43-1.61-3.724-.113-.269-.118.269-1.624 3.725-1.493 3.452a.819.819 0 0 0-.077.323c0 .828 1.448 1.473 3.294 1.473s3.294-.645 3.294-1.473a.83.83 0 0 0-.037-.232h.019zm-3.257-.387h-2.461l1.23-2.856 1.23-2.861 1.236 2.86 1.23 2.857h-2.465z" fill="#fff"/><path fill-rule="evenodd" clip-rule="evenodd" d="M41.608 6.804a10.898 10.898 0 0 0-5.66-1.664c-.798 0-1.593.099-2.367.295a9.882 9.882 0 0 0-3.022 1.342.251.251 0 0 0 0 .341l.068.077.063.078c.04.033.09.05.14.05a.202.202 0 0 0 .082 0 9.235 9.235 0 0 1 5.072-1.533c1.76.019 3.484.499 5.004 1.392l.14.086.09.046a.3.3 0 0 0 .145.05.253.253 0 0 0 .186-.082l.108-.168a.215.215 0 0 0-.05-.31z" fill="#fff"/><path fill-rule="evenodd" clip-rule="evenodd" d="M53.426 28.681c.149.035.3.052.453.05.136.001.272-.01.407-.032l.086-1.596c.027-.418.05-.973.05-1.365h.04l.57 2.388c.16.023.32.035.48.037a3.63 3.63 0 0 0 .484-.037l.575-2.388h.036c0 .387.027.942.045 1.365l.095 1.596c.133.023.268.033.403.032.16.003.32-.014.475-.05l-.308-3.957a3.932 3.932 0 0 0-.629-.05c-.197 0-.394.016-.588.05l-.353 1.438c-.027.14-.163.768-.212 1.064h-.041c-.05-.296-.19-.91-.217-1.064l-.344-1.438a3.775 3.775 0 0 0-1.217 0l-.308 3.957h.018zm7.149-1.123c.059-.196.085-.4.077-.605a1.166 1.166 0 0 0-.328-.896 1.154 1.154 0 0 0-.885-.346c-.927 0-1.307.687-1.307 1.574 0 .773.276 1.528 1.303 1.528a2.02 2.02 0 0 0 1.14-.336.952.952 0 0 0-.24-.537c-.24.103-.495.161-.755.173-.385 0-.498-.237-.525-.555h1.52zm-1.14-1.196c.271 0 .384.232.384.5v.064h-.769c.023-.382.127-.564.385-.564zm4.275.427c0-.61-.285-1.041-.814-1.041-.312.01-.609.14-.828.363a.456.456 0 0 0-.48-.35h-.344l-.04.041v2.92c.149.027.3.039.452.037.152.002.303-.01.453-.037v-1.956a.682.682 0 0 1 .43-.2c.198 0 .253.123.253.387v1.25c0 .37.122.57.488.57a.87.87 0 0 0 .566-.2 1 1 0 0 1-.14-.583v-1.2h.004zm.52.455c0 .91.335 1.515 1.05 1.515.239-.004.47-.084.66-.228v.196a.524.524 0 0 1-.587.591 2.028 2.028 0 0 1-.792-.177c-.14.193-.217.425-.222.664.352.123.722.188 1.095.19a1.352 1.352 0 0 0 1.095-.427c.18-.232.299-.577.299-1.4V26.62a.532.532 0 0 1 .162-.423.856.856 0 0 0-.28-.455.756.756 0 0 0-.548.237 1.123 1.123 0 0 0-.769-.278c-.633 0-1.162.55-1.162 1.556v-.014zm1.71-.632v1.21a.602.602 0 0 1-.452.2c-.199 0-.344-.228-.344-.773 0-.546.109-.878.394-.878a.587.587 0 0 1 .385.2v.04h.018zm4.046 1.67a.428.428 0 0 1-.163-.383V26.73a.951.951 0 0 0-.634-.954.937.937 0 0 0-.402-.047c-.457.01-.908.098-1.335.26.014.229.09.449.222.636.275-.1.563-.162.855-.186.262 0 .38.123.38.368v.114h-.412a1.018 1.018 0 0 0-1.065.591 1.03 1.03 0 0 0-.093.423.868.868 0 0 0 .55.854.855.855 0 0 0 .355.056 1.18 1.18 0 0 0 .85-.355.79.79 0 0 0 .63.314.95.95 0 0 0 .28-.455l-.019-.068zm-1.489-.165a.257.257 0 0 1-.272-.277.335.335 0 0 1 .219-.357.328.328 0 0 1 .148-.016h.317v.455a.659.659 0 0 1-.412.173v.022zm3.67-2.338h-.693v-.823l-.04-.04h-.358c-.353 0-.493.15-.493.554v.341h-.453a1.299 1.299 0 0 0 0 .65h.453v1.497c0 .555.244.814.773.814a6.53 6.53 0 0 0 .752-.059.754.754 0 0 0 0-.204 1.37 1.37 0 0 0-.073-.455h-.33c-.181 0-.254-.1-.254-.278v-1.364h.693a1.73 1.73 0 0 0 .036-.337 1.555 1.555 0 0 0-.036-.314l.022.018zm2.954 2.502a.428.428 0 0 1-.163-.382V26.73a.951.951 0 0 0-.633-.954.937.937 0 0 0-.403-.047c-.456.01-.908.098-1.335.26.012.229.089.45.222.636.275-.1.563-.162.855-.186.262 0 .38.123.38.368v.114h-.416a1.017 1.017 0 0 0-1.062.592c-.06.133-.091.277-.092.422a.868.868 0 0 0 .551.854.855.855 0 0 0 .354.056 1.18 1.18 0 0 0 .85-.355.784.784 0 0 0 .63.314.988.988 0 0 0 .28-.455l-.018-.068zm-1.493-.164a.256.256 0 0 1-.252-.17.262.262 0 0 1-.015-.107.335.335 0 0 1 .218-.357.328.328 0 0 1 .148-.016h.317v.455a.663.663 0 0 1-.416.173v.022zm1.778.387a2.51 2.51 0 0 0 1.158.287c.715 0 1.18-.369 1.18-.956a1.003 1.003 0 0 0-.777-.946l-.362-.127c-.154-.06-.218-.123-.218-.223s.082-.186.236-.186c.285.015.564.091.819.222a.882.882 0 0 0 .249-.64 2.816 2.816 0 0 0-1.073-.246c-.687 0-1.13.377-1.13.968a.935.935 0 0 0 .728.878l.32.123c.195.064.268.155.268.264 0 .109-.118.204-.335.204a1.96 1.96 0 0 1-.814-.245 1.1 1.1 0 0 0-.25.623zm2.805-3.566c0 .117.023.233.068.341a.965.965 0 0 0 .43.087c.155.005.31-.025.452-.087a.882.882 0 0 0 0-.677.976.976 0 0 0-.453-.096.999.999 0 0 0-.43.096.877.877 0 0 0-.067.336zm1.09 1.506a.625.625 0 0 0-.638-.687h-.126c-.132 0-.335 0-.516.027a1.37 1.37 0 0 0-.032.328c-.004.104.007.208.032.309h.09c.204 0 .272.15.272.34V28.7c.3.047.605.047.905 0v-2.275l.013.018zm1.937 2.215a2.425 2.425 0 0 0 .882.018l.086-1.597c0-.418.05-.973.05-1.364h.04l.57 2.388c.158.022.317.034.475.036.163-.001.324-.013.485-.036l.579-2.388h.036c0 .386.027.941.045 1.364l.09 1.597a2.48 2.48 0 0 0 .883-.018l-.308-3.957a3.932 3.932 0 0 0-.629-.05 3.356 3.356 0 0 0-.592.05l-.349 1.437c-.027.14-.163.768-.212 1.064h-.041c-.05-.296-.19-.91-.217-1.064l-.33-1.415a3.775 3.775 0 0 0-1.217 0l-.313 3.957-.013-.022zm7.356-.378a.428.428 0 0 1-.163-.382V26.73a.951.951 0 0 0-.633-.954.937.937 0 0 0-.403-.047c-.456.01-.907.098-1.334.26.011.229.088.45.221.636.276-.1.564-.162.856-.186.262 0 .38.123.38.368v.114H87.1a1.016 1.016 0 0 0-1.057.583c-.06.13-.094.273-.096.418a.869.869 0 0 0 .55.854.855.855 0 0 0 .354.055 1.179 1.179 0 0 0 .851-.354.774.774 0 0 0 .629.314.988.988 0 0 0 .28-.455l-.018-.055zm-1.493-.164a.257.257 0 0 1-.249-.236.335.335 0 0 1 .219-.357.33.33 0 0 1 .148-.016h.317v.455a.663.663 0 0 1-.417.172l-.018-.018zm1.778.387a2.51 2.51 0 0 0 1.159.287c.714 0 1.18-.369 1.18-.956a1.003 1.003 0 0 0-.778-.946l-.362-.127c-.154-.06-.221-.123-.221-.223s.081-.186.24-.186c.285.016.564.092.818.222a.882.882 0 0 0 .25-.64 2.816 2.816 0 0 0-1.073-.246c-.688 0-1.131.377-1.131.968a.935.935 0 0 0 .728.878l.321.123c.19.064.267.155.267.264 0 .109-.117.204-.339.204a1.96 1.96 0 0 1-.81-.245 1.1 1.1 0 0 0-.249.623zm5.285-.223A.454.454 0 0 1 94 27.9v-1.17a.95.95 0 0 0-.633-.954.937.937 0 0 0-.403-.047c-.456.01-.908.098-1.335.26.014.229.09.449.222.636.275-.1.563-.162.855-.186.262 0 .38.123.38.368v.114h-.412a1.016 1.016 0 0 0-1.06.592 1.013 1.013 0 0 0-.093.422.863.863 0 0 0 .534.849c.11.044.229.065.348.061a1.18 1.18 0 0 0 .85-.355.792.792 0 0 0 .634.314.979.979 0 0 0 .276-.455v-.068zm-1.489-.164a.262.262 0 0 1-.271-.277.335.335 0 0 1 .218-.357.328.328 0 0 1 .148-.016h.317v.455a.659.659 0 0 1-.412.173v.022zm3.145-.082c-.186 0-.258-.1-.258-.277v-2.82c0-.41-.131-.55-.493-.55h-.358l-.031.04v3.49c0 .554.194.813.719.813.21-.004.421-.023.629-.059a.754.754 0 0 0 0-.204 1.371 1.371 0 0 0-.068-.455l-.14.022zm3.167.246a.428.428 0 0 1-.163-.382V26.73a.951.951 0 0 0-.633-.954.937.937 0 0 0-.403-.047c-.456.01-.908.098-1.335.26.014.229.09.449.222.636a3.3 3.3 0 0 1 .855-.186c.262 0 .38.123.38.368v.114h-.416a1.017 1.017 0 0 0-1.045.587c-.06.13-.093.27-.095.414a.869.869 0 0 0 .55.854.855.855 0 0 0 .355.055 1.18 1.18 0 0 0 .85-.354.787.787 0 0 0 .629.314.99.99 0 0 0 .28-.455l-.031-.055zm-1.493-.164a.256.256 0 0 1-.252-.17.262.262 0 0 1-.015-.107.335.335 0 0 1 .218-.357.328.328 0 0 1 .148-.016h.317v.455a.663.663 0 0 1-.416.173v.022zm4.497-1.364c0-.61-.29-1.042-.819-1.042a1.214 1.214 0 0 0-.778.323v-1.073c0-.41-.136-.55-.498-.55h-.375l-.041.04v4.271c.15.028.3.04.452.037.152.002.304-.01.453-.037v-1.956a.66.66 0 0 1 .452-.2c.195 0 .245.123.245.387v1.25c0 .37.122.57.488.57a.903.903 0 0 0 .575-.2.94.94 0 0 1-.145-.583v-1.2l-.009-.037zm2.638 1.933c.149.026.301.038.452.036.152.002.303-.01.453-.036v-3.211h.543c.334 0 .488-.114.488-.423.001-.12-.016-.24-.05-.355h-2.882c-.026.129-.038.26-.036.391-.002.13.01.26.036.387h.973v3.224l.023-.013zm4.357-.419a.985.985 0 0 1-.276.455.77.77 0 0 1-.629-.314 1.208 1.208 0 0 1-.855.355.852.852 0 0 1-.83-.559.856.856 0 0 1-.053-.35 1.041 1.041 0 0 1 .35-.77 1.019 1.019 0 0 1 .804-.245h.412v-.113c0-.246-.118-.369-.38-.369a3.3 3.3 0 0 0-.855.187 1.245 1.245 0 0 1-.222-.637 4.01 4.01 0 0 1 1.335-.26.938.938 0 0 1 .974.598.97.97 0 0 1 .062.403v1.192a.46.46 0 0 0 .163.382v.045zm-1.489-.163a.651.651 0 0 0 .412-.173v-.455h-.312a.33.33 0 0 0-.383.24.34.34 0 0 0-.002.165.262.262 0 0 0 .075.199.264.264 0 0 0 .197.078l.013-.054zm4.525-1.365c0-.61-.285-1.041-.815-1.041-.312.01-.608.14-.828.363a.453.453 0 0 0-.479-.35h-.344l-.041.041v2.92c.149.027.301.039.452.037.152.002.304-.01.453-.037v-1.956a.681.681 0 0 1 .43-.2c.199 0 .253.123.253.387v1.25c0 .37.122.57.489.57a.869.869 0 0 0 .565-.2.999.999 0 0 1-.14-.583v-1.15l.005-.05zm3.28.455c0-.91-.34-1.515-1.05-1.515a1.093 1.093 0 0 0-.774.337.547.547 0 0 0-.497-.287h-.236l-.04.041v4.148l.04.041h.349c.362 0 .502-.14.502-.55v-.75c.167.08.349.122.534.122.642 0 1.172-.55 1.172-1.555v-.032zm-1.303-.75c.203 0 .348.236.348.773 0 .536-.118.91-.398.91a.78.78 0 0 1-.376-.137v-1.31a.545.545 0 0 1 .426-.236zm4.289 1.86a.434.434 0 0 1-.163-.382V26.73a.956.956 0 0 0-.29-.742.951.951 0 0 0-.751-.259 4.05 4.05 0 0 0-1.334.26c.016.228.092.448.221.636.277-.1.566-.163.86-.186.262 0 .375.123.375.368v.114h-.411a1.02 1.02 0 0 0-1.061.592 1.025 1.025 0 0 0-.093.422.863.863 0 0 0 .905.91 1.185 1.185 0 0 0 .851-.355.762.762 0 0 0 .628.314.983.983 0 0 0 .281-.455l-.018-.045zm-1.493-.164a.257.257 0 0 1-.252-.17.244.244 0 0 1-.015-.107.328.328 0 0 1 .092-.277.329.329 0 0 1 .274-.096h.312v.455a.639.639 0 0 1-.411.172v.023zm3.262.541a2.461 2.461 0 0 0 .882.018l.086-1.596c0-.418.045-.973.045-1.365h.041l.579 2.393c.158.023.316.035.475.036.162-.001.324-.013.484-.036l.579-2.388h.032c0 .387.032.942.05 1.365l.09 1.596c.133.022.268.033.403.032.161.002.322-.015.48-.05l-.308-3.957a3.942 3.942 0 0 0-.633-.05 3.39 3.39 0 0 0-.589.05l-.348 1.437c-.027.141-.163.769-.217 1.064h-.045c-.046-.295-.186-.91-.213-1.064l-.344-1.437a3.458 3.458 0 0 0-.588-.05c-.212 0-.424.016-.633.05l-.308 3.957v-.005zm7.356-.377a.423.423 0 0 1-.162-.382V26.73a.956.956 0 0 0-.291-.742.943.943 0 0 0-.75-.259 4.07 4.07 0 0 0-1.335.26c.016.228.093.448.222.636.277-.1.566-.163.86-.186.262 0 .375.123.375.368v.114h-.412a1.016 1.016 0 0 0-.804.246 1.027 1.027 0 0 0-.349.768.863.863 0 0 0 .905.91 1.18 1.18 0 0 0 .85-.355.78.78 0 0 0 .597.3.984.984 0 0 0 .281-.454l.013-.032zm-1.493-.164a.265.265 0 0 1-.195-.079.26.26 0 0 1-.071-.199.328.328 0 0 1 .092-.276.324.324 0 0 1 .274-.096h.312v.455a.64.64 0 0 1-.412.172v.023zm1.779.387c.357.187.754.285 1.158.286.71 0 1.176-.368 1.176-.955a.989.989 0 0 0-.774-.946l-.362-.127c-.158-.06-.221-.123-.221-.223s.081-.187.24-.187c.284.016.561.092.814.223a.89.89 0 0 0 .253-.641 2.812 2.812 0 0 0-1.072-.246c-.688 0-1.131.378-1.131.969a.933.933 0 0 0 .728.878l.322.123c.19.063.267.154.267.264 0 .109-.118.204-.34.204a1.962 1.962 0 0 1-.81-.245 1.103 1.103 0 0 0-.248.623zm5.302-.223a.434.434 0 0 1-.163-.382V26.73a.939.939 0 0 0-.287-.742.946.946 0 0 0-.749-.259c-.456.01-.907.098-1.335.26.012.229.089.45.222.636a3.3 3.3 0 0 1 .855-.186c.263 0 .38.123.38.368v.114h-.416a1.013 1.013 0 0 0-.804.246 1.027 1.027 0 0 0-.35.768.88.88 0 0 0 .251.658.861.861 0 0 0 .654.252 1.18 1.18 0 0 0 .851-.355.782.782 0 0 0 .629.314.99.99 0 0 0 .28-.455l-.018-.045zm-1.493-.164a.26.26 0 0 1-.252-.17.278.278 0 0 1-.015-.107.328.328 0 0 1 .093-.277.327.327 0 0 1 .274-.096h.316v.455a.66.66 0 0 1-.416.172v.023zm3.167-.082c-.185 0-.258-.1-.258-.277v-2.82c0-.41-.131-.55-.493-.55h-.357l-.037.04v3.489c0 .555.2.814.724.814.211-.004.421-.024.629-.06a.701.701 0 0 0 0-.204 1.377 1.377 0 0 0-.068-.455l-.14.023zm3.167.246a.434.434 0 0 1-.163-.382V26.73a.939.939 0 0 0-.287-.742.946.946 0 0 0-.749-.259c-.456.01-.907.098-1.334.26.011.229.088.45.221.636a3.3 3.3 0 0 1 .855-.186c.263 0 .38.123.38.368v.114h-.416a1.013 1.013 0 0 0-.804.246 1.027 1.027 0 0 0-.35.768.88.88 0 0 0 .251.658.861.861 0 0 0 .654.252 1.18 1.18 0 0 0 .851-.355.769.769 0 0 0 .574.3.984.984 0 0 0 .281-.454l.036-.032zm-1.493-.164a.26.26 0 0 1-.252-.17.278.278 0 0 1-.015-.107.343.343 0 0 1 .093-.277.324.324 0 0 1 .274-.096h.316v.455a.66.66 0 0 1-.416.172v.023zm4.493-1.364c0-.61-.285-1.042-.815-1.042-.29.011-.568.126-.782.323V24.96c0-.41-.131-.55-.493-.55h-.349l-.041.04v4.271c.293.049.591.049.883 0v-1.956a.68.68 0 0 1 .452-.2c.19 0 .244.123.244.387v1.25c0 .37.123.57.489.57a.873.873 0 0 0 .57-.2.977.977 0 0 1-.145-.583l-.013-1.214z" fill="#6FBF5B"/></svg>