<svg width="45" height="30" fill="none" xmlns="http://www.w3.org/2000/svg"><path fill-rule="evenodd" clip-rule="evenodd" d="M15.669 12.52h-.778a11.802 11.802 0 0 0 1.624 5.329 11.6 11.6 0 0 0 1.615 2.143l.594-.508a10.49 10.49 0 0 1-1.18-1.467h3.01c.275-.21.55-.414.828-.614l.517-.372a13.316 13.316 0 0 1-1.061-4.542h-.778a14.118 14.118 0 0 0 1.084 4.742h-4.09a11.047 11.047 0 0 1-1.385-4.71zm10.481-.045v1.785l.779-.454v-1.33h-.779zm-7.289-8.457a10.86 10.86 0 0 1 6.33-3.13 13.896 13.896 0 0 0-3.599 4.488l-.067.131h.877a13.086 13.086 0 0 1 3.747-4.365v4.356h.779V1.142a13.096 13.096 0 0 1 3.738 4.347h.9c0-.036-.036-.072-.059-.109a13.927 13.927 0 0 0-3.626-4.5 10.79 10.79 0 0 1 4.28 1.473 10.902 10.902 0 0 1 3.314 3.105h.063c.301 0 .602.02.9.064a11.646 11.646 0 0 0-4.207-4.04A11.51 11.51 0 0 0 26.613.008a.361.361 0 0 0-.14 0c-1.958.023-3.88.54-5.59 1.502a11.807 11.807 0 0 0-4.203 4.012h.935c.373-.535.79-1.038 1.247-1.503zm18.027 11.137a10.915 10.915 0 0 1-.9 2.076H31.94c.08-.191.157-.387.23-.582l-.973.34-.103.242h-.553c-.702.254-1.402.516-2.101.785h2.25a12.93 12.93 0 0 1-3.77 4.406V18.63l-.78.313v3.52a12.766 12.766 0 0 1-2.536-2.48l-.743.309a13.787 13.787 0 0 0 2.33 2.426 10.73 10.73 0 0 1-4.408-1.554l-.86.373a11.515 11.515 0 0 0 6.52 2.044.46.46 0 0 0 .157 0 11.663 11.663 0 0 0 5.625-1.519 11.8 11.8 0 0 0 4.213-4.06c.101-.144.193-.296.275-.453a11.73 11.73 0 0 0 1.075-2.635l-.9.24zm-2.699 4.41a10.848 10.848 0 0 1-6.298 3.153 13.84 13.84 0 0 0 3.329-3.998c.126-.227.252-.454.369-.704h3.905a11.037 11.037 0 0 1-1.278 1.55h-.027zM27.05 7.024l-20.352.35-.481.354 22.12.318-1.287-1.022z" fill="#F08519"/><path fill-rule="evenodd" clip-rule="evenodd" d="M37.789 10.804c2.078-2.449 1.214-5.056-2.25-5.047l-26.726.06-.45.326 27.086.455c3.442.054 2.91 2.511 1.004 4.928 3.189-.182 6-.15 6.194 1.363-8.331 1.199-15.52 4.456-23.874 8.126 3.63-3.366 8.29-6.15 13.167-8.817l1.566-.05-.765-.608-32.084.277-.657.49 30.447-.127c-6.721 3.516-11.87 7.262-15.444 11.237 9.991-4.496 21.391-9.33 29.12-9.947-.905-2.276-2.439-2.848-6.334-2.666z" fill="#F08519"/><path fill-rule="evenodd" clip-rule="evenodd" d="M29.017 8.587L4.76 8.8l-.535.396 25.772.172-.98-.781zm1.686 1.34l-28.017.4-.463.345 29.533.09-1.053-.835zm10.185 2.493a.42.42 0 0 0-.378-.422.372.372 0 0 0-.404.364.425.425 0 0 0 .377.422.366.366 0 0 0 .371-.215.376.376 0 0 0 .034-.148z" fill="#F08519"/><path fill-rule="evenodd" clip-rule="evenodd" d="M7.98 26.91h1.548c.274-.021.546.067.756.246a.911.911 0 0 1 .252.69.957.957 0 0 1-.275.718c-.236.19-.535.283-.836.259h-.509v1.122H7.98V26.91zm.936 1.3h.225a.59.59 0 0 0 .383-.096.299.299 0 0 0 .107-.24.33.33 0 0 0-.094-.241.483.483 0 0 0-.355-.1h-.266v.676zm1.984.222a1.448 1.448 0 0 1 .408-1.156 1.421 1.421 0 0 1 1.144-.416 1.551 1.551 0 0 1 1.156.41 1.528 1.528 0 0 1 .405 1.135c.012.3-.048.6-.175.872-.115.225-.293.41-.513.531a1.67 1.67 0 0 1-.837.191 1.917 1.917 0 0 1-.841-.163 1.288 1.288 0 0 1-.54-.518 1.717 1.717 0 0 1-.207-.909v.023zm.927 0c-.016.228.044.455.17.645a.577.577 0 0 0 .45.2.589.589 0 0 0 .45-.195c.13-.212.187-.461.162-.709a.942.942 0 0 0-.17-.622.593.593 0 0 0-.45-.2.566.566 0 0 0-.45.2c-.13.194-.191.429-.171.663l.009.018zm2.528.509l.9-.055c.01.12.05.234.117.332a.486.486 0 0 0 .41.182.447.447 0 0 0 .305-.096.272.272 0 0 0 .079-.343.28.28 0 0 0-.075-.093 1.127 1.127 0 0 0-.45-.177 1.984 1.984 0 0 1-.872-.368.731.731 0 0 1-.261-.586.804.804 0 0 1 .135-.454.928.928 0 0 1 .405-.327 1.9 1.9 0 0 1 .697-.096 1.5 1.5 0 0 1 .9.218.938.938 0 0 1 .36.69l-.873.05a.455.455 0 0 0-.149-.299.447.447 0 0 0-.305-.095.344.344 0 0 0-.243.072.199.199 0 0 0-.086.169.166.166 0 0 0 .068.127c.094.06.2.098.31.113.3.054.594.144.873.268.157.073.29.19.382.336a.838.838 0 0 1 .117.454.946.946 0 0 1-.157.537 1.042 1.042 0 0 1-.45.377 1.85 1.85 0 0 1-.747.108 1.474 1.474 0 0 1-1.062-.3 1.178 1.178 0 0 1-.332-.758l.004.014zm4.63-2.03h.93v3.034h-.93V26.91zm1.6 0h.869l1.125 1.675V26.91h.9v3.035h-.9l-1.12-1.663v1.663h-.873V26.91zm3.5 0h1.382a1.7 1.7 0 0 1 .661.113c.163.07.305.181.414.322.112.144.193.31.238.486.05.192.074.389.072.587.01.255-.026.511-.108.753a1.223 1.223 0 0 1-.306.455.987.987 0 0 1-.418.24c-.18.052-.366.08-.553.082h-1.381V26.91zm.932.69v1.653h.225a.958.958 0 0 0 .418-.063.453.453 0 0 0 .19-.227 1.39 1.39 0 0 0 .071-.527.998.998 0 0 0-.157-.659.654.654 0 0 0-.518-.177h-.23zm2.204.831a1.45 1.45 0 0 1 .414-1.164 1.42 1.42 0 0 1 1.156-.408 1.551 1.551 0 0 1 1.156.41 1.53 1.53 0 0 1 .405 1.135c0 .303-.072.603-.211.872-.115.225-.293.41-.513.531-.26.13-.547.192-.837.177a1.918 1.918 0 0 1-.841-.163 1.288 1.288 0 0 1-.508-.504 1.764 1.764 0 0 1-.207-.909l-.014.023zm.927 0c-.01.23.059.458.193.645a.581.581 0 0 0 .45.2.585.585 0 0 0 .45-.195c.13-.212.186-.461.162-.709a.942.942 0 0 0-.162-.604.584.584 0 0 0-.45-.2.566.566 0 0 0-.45.2c-.13.195-.19.429-.17.663h-.023zm2.7-1.522h.867l1.125 1.677V26.91h.9v3.035h-.9l-1.125-1.663v1.663h-.872V26.91h.004zm3.49 0h2.483v.65h-1.556v.486h1.44v.618h-1.44v.595h1.597v.686h-2.529V26.91h.005zm2.866 2.03l.9-.054c.009.12.05.234.116.332a.486.486 0 0 0 .41.182.447.447 0 0 0 .306-.096.273.273 0 0 0 .108-.218.285.285 0 0 0-.104-.209 1.126 1.126 0 0 0-.45-.177 1.984 1.984 0 0 1-.873-.368.745.745 0 0 1-.278-.586.804.804 0 0 1 .135-.454.927.927 0 0 1 .404-.327c.236-.088.487-.128.738-.118.308-.02.614.056.877.218a.937.937 0 0 1 .36.69l-.872.05a.455.455 0 0 0-.149-.3.447.447 0 0 0-.306-.095.344.344 0 0 0-.243.073.198.198 0 0 0-.085.168.165.165 0 0 0 .067.127c.095.06.2.098.31.114.301.053.594.143.873.268.157.072.29.189.383.336a.838.838 0 0 1 .117.454.947.947 0 0 1-.158.536 1.041 1.041 0 0 1-.45.377 1.85 1.85 0 0 1-.742.122 1.479 1.479 0 0 1-1.062-.3 1.178 1.178 0 0 1-.332-.758v.014zm3.23-2.03h.953v3.035h-.953V26.91zm3.441 2.535h-1.053l-.148.5h-.95l1.134-3.035h1.017L45 29.945h-.972l-.153-.5zm-.193-.654l-.329-1.077-.333 1.09.662-.013z" fill="#B6B6B7"/></svg>